<svg id="vector" xmlns="http://www.w3.org/2000/svg" width="447" height="563" viewBox="0 0 447 563"><path fill="#2B6CA4" d="M0,562.33V468.62H8.17L51.03,541.72H46.74L89.19,468.62H97.36V562.33H87.85V483.48H90.13L51.03,550.42H46.34L6.96,483.48H9.51V562.33H0Z" id="path_0"/><path fill="#2B6CA4" d="M154.56,563C147.77,563 141.66,561.48 136.21,558.45C130.85,555.33 126.61,551.09 123.49,545.73C120.36,540.29 118.8,534.08 118.8,527.12C118.8,520.07 120.36,513.87 123.49,508.52C126.61,503.16 130.85,498.97 136.21,495.93C141.57,492.9 147.68,491.38 154.56,491.38C161.52,491.38 167.68,492.9 173.04,495.93C178.49,498.97 182.73,503.16 185.76,508.52C188.89,513.87 190.45,520.07 190.45,527.12C190.45,534.08 188.89,540.29 185.76,545.73C182.73,551.09 178.49,555.33 173.04,558.45C167.59,561.48 161.43,563 154.56,563ZM154.56,554.57C159.65,554.57 164.16,553.45 168.09,551.22C172.01,548.9 175.09,545.69 177.33,541.58C179.65,537.39 180.81,532.57 180.81,527.12C180.81,521.59 179.65,516.77 177.33,512.66C175.09,508.56 172.01,505.39 168.09,503.16C164.16,500.84 159.69,499.68 154.69,499.68C149.69,499.68 145.23,500.84 141.3,503.16C137.37,505.39 134.25,508.56 131.93,512.66C129.6,516.77 128.44,521.59 128.44,527.12C128.44,532.57 129.6,537.39 131.93,541.58C134.25,545.69 137.37,548.9 141.3,551.22C145.23,553.45 149.65,554.57 154.56,554.57Z" id="path_1"/><path fill="#2B6CA4" d="M228.75,563C222.94,563 217.45,562.2 212.27,560.59C207.1,558.9 203.03,556.8 200.09,554.3L204.37,546.8C207.23,548.94 210.89,550.82 215.35,552.42C219.82,553.94 224.51,554.7 229.42,554.7C236.11,554.7 240.93,553.67 243.88,551.62C246.83,549.48 248.3,546.67 248.3,543.19C248.3,540.6 247.45,538.59 245.76,537.16C244.15,535.65 242.01,534.53 239.33,533.82C236.65,533.01 233.66,532.34 230.35,531.81C227.05,531.27 223.75,530.65 220.44,529.93C217.23,529.22 214.28,528.19 211.6,526.85C208.93,525.43 206.74,523.51 205.04,521.1C203.43,518.69 202.63,515.48 202.63,511.46C202.63,507.62 203.7,504.19 205.85,501.15C207.99,498.12 211.11,495.75 215.22,494.06C219.42,492.27 224.51,491.38 230.49,491.38C235.04,491.38 239.59,492.01 244.15,493.25C248.7,494.42 252.45,495.98 255.4,497.94L251.25,505.57C248.12,503.43 244.77,501.91 241.2,501.02C237.63,500.04 234.06,499.55 230.49,499.55C224.15,499.55 219.46,500.66 216.43,502.89C213.48,505.04 212.01,507.8 212.01,511.19C212.01,513.87 212.81,515.97 214.42,517.48C216.11,519 218.3,520.21 220.98,521.1C223.75,521.9 226.74,522.57 229.95,523.11C233.26,523.64 236.51,524.31 239.73,525.11C243.03,525.83 246.02,526.85 248.7,528.19C251.47,529.44 253.66,531.27 255.26,533.68C256.96,536 257.81,539.08 257.81,542.92C257.81,547.03 256.65,550.59 254.33,553.63C252.09,556.57 248.79,558.9 244.42,560.59C240.13,562.2 234.91,563 228.75,563Z" id="path_2"/><path fill="#2B6CA4" d="M319.32,562.33V546.8L318.92,544.26V518.29C318.92,512.31 317.22,507.71 313.83,504.5C310.52,501.29 305.57,499.68 298.96,499.68C294.41,499.68 290.08,500.44 285.97,501.96C281.86,503.47 278.38,505.48 275.52,507.98L271.24,500.89C274.81,497.85 279.1,495.53 284.1,493.92C289.1,492.23 294.36,491.38 299.9,491.38C309.01,491.38 316.01,493.66 320.92,498.21C325.92,502.67 328.42,509.5 328.42,518.69V562.33H319.32ZM295.08,563C289.81,563 285.21,562.15 281.28,560.46C277.44,558.67 274.5,556.26 272.44,553.23C270.39,550.1 269.36,546.53 269.36,542.52C269.36,538.86 270.21,535.56 271.91,532.61C273.69,529.58 276.55,527.17 280.48,525.38C284.5,523.51 289.85,522.57 296.55,522.57H320.79V529.67H296.82C290.03,529.67 285.3,530.87 282.62,533.28C280.03,535.69 278.74,538.68 278.74,542.25C278.74,546.27 280.3,549.48 283.42,551.89C286.55,554.3 290.92,555.5 296.55,555.5C301.91,555.5 306.51,554.3 310.34,551.89C314.27,549.39 317.13,545.82 318.92,541.18L321.06,547.74C319.27,552.38 316.15,556.08 311.68,558.85C307.31,561.62 301.77,563 295.08,563Z" id="path_3"/><path fill="#2B6CA4" d="M354.25,562.33V492.05H363.76V562.33H354.25ZM359.07,476.52C357.11,476.52 355.46,475.85 354.12,474.51C352.78,473.17 352.11,471.57 352.11,469.69C352.11,467.82 352.78,466.26 354.12,465.01C355.46,463.67 357.11,463 359.07,463C361.04,463 362.69,463.63 364.03,464.87C365.37,466.12 366.04,467.68 366.04,469.56C366.04,471.52 365.37,473.17 364.03,474.51C362.78,475.85 361.13,476.52 359.07,476.52Z" id="path_4"/><path fill="#2B6CA4" d="M419.41,563C412.45,563 406.2,561.48 400.66,558.45C395.22,555.33 390.93,551.09 387.81,545.73C384.68,540.29 383.12,534.08 383.12,527.12C383.12,520.07 384.68,513.87 387.81,508.52C390.93,503.16 395.22,498.97 400.66,495.93C406.2,492.9 412.45,491.38 419.41,491.38C425.39,491.38 430.8,492.54 435.62,494.86C440.44,497.18 444.23,500.66 447,505.3L439.9,510.12C437.49,506.55 434.5,503.92 430.93,502.22C427.36,500.53 423.47,499.68 419.28,499.68C414.28,499.68 409.77,500.84 405.75,503.16C401.73,505.39 398.56,508.56 396.24,512.66C393.92,516.77 392.76,521.59 392.76,527.12C392.76,532.66 393.92,537.48 396.24,541.58C398.56,545.69 401.73,548.9 405.75,551.22C409.77,553.45 414.28,554.57 419.28,554.57C423.47,554.57 427.36,553.72 430.93,552.02C434.5,550.33 437.49,547.74 439.9,544.26L447,549.08C444.23,553.63 440.44,557.11 435.62,559.52C430.8,561.84 425.39,563 419.41,563Z" id="path_5"/><path fill="#2B6CA4" d="M0.27,0.18C19.51,-0.2 39.91,0.14 59.26,0.14L446.91,0.18C446.77,10.98 446.95,22.26 446.95,33.11L446.96,432.22C446.96,436.08 447.15,443.36 446.7,447L0.16,446.96L0.17,51.9C0.17,35.28 -0.27,16.64 0.27,0.18ZM39.12,39.3L39.1,394.03C39.1,398.05 39.28,403.86 39.02,407.66C52.52,408.17 68.56,407.79 82.2,407.79L403,407.78C404.63,407.8 406.5,407.77 408.11,407.85C407.9,402.88 408.06,397.06 408.07,391.99L408.1,39.38C390.36,39.24 372.61,39.21 354.86,39.27L44.82,39.3C43.06,39.33 40.82,39.44 39.12,39.3Z" id="path_6"/><path fill="#2B6CA4" d="M218.28,56.71C222.86,56.22 228.7,56.75 233.23,57.38C254.05,60.14 272.9,71.13 285.55,87.9C297.17,103.35 303.59,125.25 300.85,144.47C311.25,143.44 318.37,143.58 328.69,146.02C348.81,150.91 366.19,163.53 377.07,181.15C388.1,199.13 391.52,220.75 386.58,241.25C381.51,261.3 368.81,278.58 351.17,289.4C338.58,296.99 325.48,301.24 310.7,301.09C307.66,301.06 303.95,301.17 301.04,300.46L301.07,300.93C301.33,305.76 301.6,310.64 301.26,315.47C299.92,332.9 292.8,349.38 281.03,362.32C267.38,377.4 247.55,387.24 227.16,388.22C223.89,388.42 221.56,388.42 218.28,388.23C197.28,386.97 177.67,377.36 163.81,361.55C152.35,348.53 145.54,332.08 144.44,314.78C144.16,310.19 144.43,305.39 144.73,300.79C139.53,301.18 131.13,301.27 125.97,300.65C105.59,298.23 86.43,287.26 73.77,271.19C60.76,254.53 54.84,233.41 57.29,212.42C62.58,169.38 102.1,139.34 144.96,144.57C144.84,144.03 144.75,143.48 144.69,142.92C142.43,122.51 148.44,102.04 161.38,86.08C172.15,72.66 187.03,63.15 203.74,59C208.64,57.8 213.29,57.24 218.28,56.71ZM162.02,164.28C136.95,162.59 115.85,161.09 95.75,178.69C84.4,188.83 77.48,203.01 76.48,218.2C74.45,250.03 97.94,275.69 128.72,280.88C136.4,282.17 144.6,282.2 152.31,284.01C155.41,284.69 158.63,284.89 161.77,285.74C162.44,293.11 162.88,300.46 163.46,307.83C163.83,312.49 164.01,316.83 164.92,321.44C167.56,334.71 174.67,346.67 185.07,355.32C196.14,364.51 212.7,370.05 227.07,368.7C245.68,366.32 258.09,360.26 270.04,345.44C285.08,326.77 280.77,307 283.98,285.61C291.83,284.4 299.72,283.14 307.58,281.97C311.88,281.33 316,281.44 320.48,280.65C335.57,278.08 349.06,269.74 358.09,257.4C367.36,244.71 371.13,228.84 368.54,213.35C365.99,197.13 357.86,184.13 344.65,174.55C337.19,169.06 328.48,165.51 319.31,164.22C316.11,163.74 312.84,163.66 309.64,163.24C304.1,162.52 298.55,161.7 292.99,161.11C290.47,160.84 287.38,160.11 284.92,160.19L282.42,138.36C281.87,133.24 281.66,128.43 280.68,123.35C278.11,109.97 270.88,97.94 260.26,89.41C247.47,79.25 233.93,75.16 217.59,76.33C199.19,78.92 186.28,85.46 174.95,100.29C164.56,113.89 163.5,128.18 163.4,144.48C163.37,150.84 162.26,157.9 162.02,164.28Z" id="path_7"/><path fill="#2B6CA4" d="M293.79,206.15C297.44,205.96 302.31,205.86 305.81,206.72C320.13,210.24 321.92,234.15 309.77,241.25C306.08,243.48 301.6,242.93 297.46,242.91C287.76,242.86 278.52,241.82 269.11,239.35C259.16,236.7 248.71,230.92 240.12,225.27C241.92,224.52 244.17,222.6 245.84,221.45C260.74,211.2 275.99,207.35 293.79,206.15Z" id="path_8"/><path fill="#2B6CA4" d="M139.19,206.15C143.96,205.8 149.03,206.2 153.78,206.63C172.37,208.32 186.18,214.66 201.16,225.36C194.67,229.94 186.86,233.87 179.55,236.91C175.26,238.89 167.75,240.56 163,241.4C156.77,242.51 140.45,243.74 134.99,242.55C133.28,242.17 131.67,241.43 130.27,240.38C121.92,234.18 121.81,219.27 128.03,211.54C131.21,207.59 134.43,206.7 139.19,206.15Z" id="path_9"/><path fill="#2B6CA4" d="M219.87,127.43C227.45,126.86 237.05,130.42 238.68,138.78C239.63,143.63 239.04,148.66 238.87,153.56C238.18,173 232.29,188.55 221.71,204.75C221.56,204.7 221.35,204.64 221.26,204.51C211.24,190.33 204.67,176.52 203.08,159.01C201.66,143.3 199.79,129.4 219.87,127.43Z" id="path_10"/><path fill="#2B6CA4" d="M221.56,244.18C222.64,244.87 225.6,250.4 226.43,251.77C234.38,264.95 238.15,280.06 238.78,295.36C239.07,302.16 240.7,311.52 234.99,316.6C230.69,320.43 226.33,321.6 220.68,321.43C216.16,321.16 211.73,319.96 208.05,317.19C200.89,311.79 202.22,303.22 202.54,295.24C203.29,276.67 210.22,258.88 221.56,244.18Z" id="path_11"/><path fill="#2B6CA4" d="M207.37,239.79C207.47,239.89 207.54,240.15 207.6,240.32C204.12,253.03 198.66,262.79 190.83,273.35C184.16,282.34 179.79,287.59 168.96,279.26C166.77,277.16 165.44,275.25 164.46,272.3C161.71,264 171.06,258.25 176.71,253.97C185.56,247.26 196.35,242.08 207.37,239.79Z" id="path_12"/><path fill="#2B6CA4" d="M241.9,239.65C255.99,242.38 269.47,250.79 280.29,259.95C287.42,265.99 286.97,272.31 280.85,278.84C271.07,287.33 265.82,283.01 259.28,274.26C251.05,263.26 245.21,253.03 241.9,239.65Z" id="path_13"/><path fill="#2B6CA4" d="M177.81,161.8C179.29,161.84 180.58,161.97 181.95,162.59C188.95,165.7 200.17,185.23 203.35,192.59C205.18,196.8 206.26,201.21 207.9,205.47C204.71,204.53 199.98,203.26 197.01,202.07C193.69,201.4 181.16,194.36 178.31,192.01C174.32,188.68 164.55,183.07 164.03,177.57C163.26,169.41 170.03,162.89 177.81,161.8Z" id="path_14"/><path fill="#2B6CA4" d="M270.24,161.82C281.27,161.76 291.42,175.31 281.15,184.22C272.49,191.73 264.47,196.9 254.04,201.49C249.95,203.15 245.96,204.01 241.82,205.55C245.8,189.97 253.72,176.6 264.39,164.65C265.87,162.99 268.11,162.16 270.24,161.82Z" id="path_15"/><path fill="#2B6CA4" d="M218.77,215.05C222.15,214.34 225.65,215.51 227.94,218.1C230.22,220.69 230.94,224.3 229.82,227.57C228.69,230.84 225.9,233.24 222.5,233.88C217.33,234.85 212.34,231.47 211.31,226.31C210.29,221.15 213.62,216.12 218.77,215.05Z" id="path_16"/><path fill="#2B6CA4" d="M319.34,375C337.23,373.94 352.02,377.88 367.34,387.22C370.69,389.26 373.61,391.17 376.6,393.75C374.27,393.42 369.69,393.6 367.18,393.63C362.3,393.7 357.43,393.73 352.55,393.73L313.72,393.75C310.43,393.74 307.15,393.73 303.86,393.72C301.61,393.71 299.06,393.45 296.85,393.74L296.49,393.45C296.57,390.76 301.35,383.64 303.48,381.46C308.1,376.73 312.94,375.23 319.34,375Z" id="path_17"/><path fill="#2B6CA4" d="M117,375.2C135.32,374.4 142.52,376.13 150.62,393.55C135.88,394.11 118.98,393.75 104.06,393.75L83.61,393.69C79.75,393.64 73.63,393.25 70.1,393.86C84.83,382.73 98.44,376.54 117,375.2Z" id="path_18"/><path fill="#2B6CA4" d="M296.27,53.35C298.52,53.59 302.8,53.44 305.24,53.44L321.93,53.42L376.05,53.49C373.43,55.77 367.62,59.57 364.59,61.24C348.5,69.94 328.49,75.75 310.06,70.06C303.87,68.15 298.5,59.06 296.27,53.35Z" id="path_19"/><path fill="#2B6CA4" d="M70.8,53.28C73.81,53.63 78.13,53.47 81.3,53.45L97.98,53.42L150.6,53.44C148.51,57.98 146.7,61.52 143.33,65.27C136.82,71.51 131.66,72.01 122.8,72.15C110.19,72.35 97.53,69.27 86.31,63.53C83.93,62.3 71.33,55.02 70.8,53.28Z" id="path_20"/><path fill="#2B6CA4" d="M394.39,295.38C394.55,295.56 394.65,295.79 394.7,296.02C394.77,296.38 394.76,300.85 394.76,301.42L394.76,354.9C394.76,361.66 394.6,368.68 394.75,375.4C392.71,373.04 388.83,366.86 387.21,364.1C385.68,361.5 384.29,358.82 383.06,356.06C380.92,351.37 379.24,346.47 378.06,341.45C376.08,332.9 375.02,317.95 378.08,309.51C380.64,302.45 387.81,298.23 394.39,295.38Z" id="path_21"/><path fill="#2B6CA4" d="M394.58,72.03C394.96,73.04 394.76,84.69 394.76,86.9L394.77,130.23C394.76,136.75 394.47,145.5 394.8,151.81C390.72,150.09 386.91,147.82 383.47,145.04C383.16,144.78 382.86,144.52 382.56,144.25C377.52,139.66 376.58,133.38 376.27,126.98C375.48,110.57 379.46,95.9 387.82,81.84C389.52,78.98 392.31,74.46 394.58,72.03Z" id="path_22"/><path fill="#2B6CA4" d="M52.41,72.24C52.58,72.36 52.79,72.49 52.91,72.64C65.29,88.77 72.21,107.98 70.73,128.47C70.22,135.59 69.12,140.28 63.59,145.23C59.88,148.3 56.62,150 52.29,152.14C52.67,145.46 52.23,136.85 52.35,129.99C52.69,110.96 51.94,91.23 52.41,72.24Z" id="path_23"/><path fill="#2B6CA4" d="M52.29,295.24C53.85,295.57 54.9,296.07 56.27,296.83C62.38,300.23 67.73,304.16 69.62,311.23C70.66,315.14 70.59,318.13 70.75,322.07C71.37,337.07 67.4,350.64 59.91,363.58C57.5,367.88 54.57,371.44 52.2,375.53C52.53,370.81 52.36,365.03 52.35,360.22L52.33,335.17L52.33,309.26C52.33,305.04 52.54,299.35 52.29,295.24Z" id="path_24"/><path fill="#2B6CA4" d="M344.42,330.62C349.17,330.27 352.24,333.94 355.17,337.13C358.74,341.02 362.23,345.14 365.1,349.58C366.94,352.5 368.57,355.55 369.98,358.71C371.84,362.92 372.83,367.92 374.59,371.87L374.72,372.17C371.29,371.14 367.25,370.89 363.88,369.91C351.54,367.3 342.61,362.29 334.23,352.68C326.72,344.1 334.41,332.22 344.42,330.62Z" id="path_25"/><path fill="#2B6CA4" d="M373.67,75.1C373.8,75.07 374.11,75.11 374.25,75.11L374.39,75.61C370.46,88.77 365.93,98.25 356.22,108.32C349.03,115.79 346.85,120.35 336.54,112.49C326.87,103.1 331.6,95.67 340,88.24C350.27,79.16 360.87,77.48 373.67,75.1Z" id="path_26"/><path fill="#2B6CA4" d="M73.73,73.59C83.44,75.61 95.65,81.51 102.9,88.11C111.3,95.76 121.08,100.76 110.51,112.36C100.83,120.99 94.65,116.3 87.27,108.16C77.98,97.93 75.94,86.8 73.73,73.59Z" id="path_27"/><path fill="#2B6CA4" d="M100.08,330.13C101.63,330.17 103.25,330.41 104.71,330.94C108.84,332.43 112.18,335.52 113.99,339.51C117.14,346.45 112.75,350.05 108.19,354.32C101.19,360.86 94.27,365.78 85.41,369.54C82.44,370.67 75.92,372.45 73.57,373.6C75.77,362.37 77.3,351.49 84.56,342.18C87.42,338.53 92.15,332.81 96.47,330.89C97.35,330.5 99.07,330.28 100.08,330.13Z" id="path_28"/><path fill="#2B6CA4" d="M122.69,312.32C128,311.97 132.59,315.97 132.98,321.27C133.37,326.57 129.4,331.19 124.1,331.62C118.75,332.05 114.06,328.03 113.67,322.68C113.28,317.32 117.33,312.67 122.69,312.32Z" id="path_29"/><path fill="#2B6CA4" d="M123.04,115.41C128.36,115.25 132.81,119.43 132.97,124.74C133.13,130.06 128.95,134.51 123.63,134.67C118.31,134.83 113.86,130.65 113.7,125.33C113.54,120.02 117.72,115.58 123.04,115.41Z" id="path_30"/><path fill="#2B6CA4" d="M321.11,115.14C326.33,114.03 331.46,117.38 332.54,122.6C333.63,127.83 330.25,132.94 325.02,133.99C319.82,135.04 314.75,131.7 313.67,126.51C312.6,121.32 315.92,116.24 321.11,115.14Z" id="path_31"/><path fill="#2B6CA4" d="M321.19,312.98C324.58,312.29 328.08,313.48 330.36,316.09C332.63,318.7 333.32,322.33 332.17,325.59C331.02,328.86 328.2,331.24 324.79,331.85C319.61,332.77 314.65,329.35 313.67,324.19C312.68,319.03 316.04,314.03 321.19,312.98Z" id="path_32"/></svg>